<svg width="1200" height="620" viewBox="0 0 1200 620" fill="none" xmlns="http://www.w3.org/2000/svg">
  <rect width="1200" height="620" rx="28" fill="#F8FBF5"/>
  <rect x="80" y="90" width="1040" height="440" rx="24" fill="#FFFFFF" stroke="#DCEAD6" stroke-width="3"/>
  <rect x="150" y="150" width="470" height="260" rx="16" fill="#EAF5E4"/>
  <rect x="190" y="190" width="390" height="20" rx="10" fill="#A5C99A"/>
  <rect x="190" y="230" width="340" height="20" rx="10" fill="#C3DDBB"/>
  <rect x="190" y="270" width="360" height="20" rx="10" fill="#C3DDBB"/>
  <rect x="190" y="310" width="280" height="20" rx="10" fill="#C3DDBB"/>
  <rect x="690" y="150" width="360" height="150" rx="16" fill="#E1EEF7"/>
  <circle cx="748" cy="225" r="34" fill="#0F5A6E"/>
  <rect x="800" y="200" width="210" height="18" rx="8" fill="#9FC4D8"/>
  <rect x="800" y="230" width="170" height="18" rx="8" fill="#BFD8E7"/>
  <rect x="690" y="330" width="360" height="80" rx="16" fill="#F0F5E5"/>
  <path d="M740 380L770 350L810 372L850 332L900 360" stroke="#1E5A46" stroke-width="8" stroke-linecap="round" stroke-linejoin="round"/>
</svg>
