<svg width="1600" height="980" viewBox="0 0 1600 980" fill="none" xmlns="http://www.w3.org/2000/svg">
  <defs>
    <linearGradient id="bg" x1="0" y1="0" x2="1600" y2="980" gradientUnits="userSpaceOnUse">
      <stop stop-color="#F5FBFF"/>
      <stop offset="1" stop-color="#EAF4EA"/>
    </linearGradient>
    <linearGradient id="plate" x1="410" y1="620" x2="1200" y2="620" gradientUnits="userSpaceOnUse">
      <stop stop-color="#D9EAF7"/>
      <stop offset="1" stop-color="#EFF6FD"/>
    </linearGradient>
    <linearGradient id="print" x1="730" y1="380" x2="980" y2="610" gradientUnits="userSpaceOnUse">
      <stop stop-color="#F3A74F"/>
      <stop offset="1" stop-color="#E26A38"/>
    </linearGradient>
  </defs>
  <rect width="1600" height="980" rx="40" fill="url(#bg)"/>
  <circle cx="1380" cy="160" r="150" fill="#E3F0FB"/>
  <circle cx="170" cy="860" r="180" fill="#E6F1DF"/>

  <rect x="390" y="180" width="820" height="560" rx="32" fill="#FFFFFF" stroke="#CDE0EF" stroke-width="4"/>
  <rect x="480" y="240" width="640" height="70" rx="16" fill="#EFF6FB"/>
  <circle cx="530" cy="275" r="10" fill="#0F5A6E"/>
  <circle cx="565" cy="275" r="10" fill="#5D7E8A"/>
  <rect x="1020" y="257" width="70" height="34" rx="8" fill="#0F5A6E"/>

  <rect x="520" y="350" width="560" height="40" rx="14" fill="#DCEAF5"/>
  <rect x="550" y="392" width="500" height="14" rx="7" fill="#C5DDED"/>

  <rect x="720" y="328" width="170" height="65" rx="16" fill="#0F5A6E"/>
  <rect x="760" y="385" width="90" height="72" rx="14" fill="#1D6E84"/>
  <rect x="790" y="450" width="30" height="78" rx="8" fill="#355865"/>

  <ellipse cx="800" cy="625" rx="360" ry="70" fill="url(#plate)" stroke="#BDD6EA" stroke-width="4"/>
  <path d="M700 594C733 566 783 563 807 593C830 563 882 566 912 594C872 633 739 636 700 594Z" fill="url(#print)"/>
  <path d="M805 527C805 559 776 581 740 581C740 549 768 527 805 527Z" fill="#F6B45A"/>
  <path d="M810 527C810 559 839 581 875 581C875 549 847 527 810 527Z" fill="#E97543"/>

  <rect x="1128" y="363" width="42" height="210" rx="14" fill="#27414A"/>
  <rect x="1115" y="332" width="70" height="36" rx="12" fill="#0F5A6E"/>
  <circle cx="1150" cy="470" r="14" fill="#F2B705"/>

  <text x="120" y="130" fill="#0F5A6E" font-size="44" font-family="Inter, sans-serif" font-weight="700">3D Gıda Üretim Teknolojisi</text>
</svg>
