<svg width="1600" height="900" viewBox="0 0 1600 900" fill="none" xmlns="http://www.w3.org/2000/svg">
  <rect width="1600" height="900" fill="#EEF8F0"/>
  <rect x="210" y="130" width="1180" height="640" rx="30" fill="#FFFFFF" stroke="#CDE5D0" stroke-width="4"/>
  <rect x="320" y="220" width="960" height="70" rx="14" fill="#E8F5EA"/>
  <rect x="610" y="292" width="180" height="70" rx="16" fill="#1E5A46"/>
  <rect x="810" y="292" width="180" height="70" rx="16" fill="#2C725A"/>
  <rect x="655" y="350" width="90" height="120" rx="14" fill="#4B7A68"/>
  <rect x="855" y="350" width="90" height="120" rx="14" fill="#4B7A68"/>
  <rect x="775" y="338" width="50" height="40" rx="10" fill="#F2B705"/>
  <ellipse cx="800" cy="640" rx="360" ry="64" fill="#DFF1E0" stroke="#C0DFBF" stroke-width="4"/>
  <path d="M675 620C705 588 750 579 779 614C808 578 854 588 882 620C920 588 967 591 994 620C952 653 718 653 675 620Z" fill="#E5824C"/>
  <text x="800" y="820" text-anchor="middle" fill="#1E5A46" font-size="50" font-family="Inter, sans-serif" font-weight="600">FELIX Food 1.6 Switch Head</text>
</svg>
