<svg width="1600" height="900" viewBox="0 0 1600 900" fill="none" xmlns="http://www.w3.org/2000/svg">
  <rect width="1600" height="900" fill="#FBF5EE"/>
  <rect x="210" y="130" width="1180" height="640" rx="30" fill="#FFFFFF" stroke="#E6D8C8" stroke-width="4"/>
  <rect x="320" y="220" width="960" height="70" rx="14" fill="#F4EBDF"/>
  <rect x="620" y="292" width="170" height="68" rx="16" fill="#785224"/>
  <rect x="810" y="292" width="170" height="68" rx="16" fill="#8C6430"/>
  <rect x="660" y="350" width="90" height="120" rx="14" fill="#90724A"/>
  <rect x="850" y="350" width="90" height="120" rx="14" fill="#90724A"/>
  <ellipse cx="800" cy="640" rx="360" ry="64" fill="#F1E5D8" stroke="#E2CDB5" stroke-width="4"/>
  <path d="M675 619C708 579 758 581 789 620C824 579 874 582 905 620C945 583 995 589 1020 621C978 654 719 656 675 619Z" fill="#E17B44"/>
  <text x="800" y="820" text-anchor="middle" fill="#755024" font-size="50" font-family="Inter, sans-serif" font-weight="600">FELIX Food 1.6 Twin Head</text>
</svg>
